<svg width="180" height="72" viewBox="0 0 180 72" fill="none" xmlns="http://www.w3.org/2000/svg">
<path d="M0.108732 88.8907L0.739219 90.5021L141.964 100.341L210.222 -20.5357L67.4962 -30.4792L0.108732 88.8907Z" fill="#DCEEFF"/>
<path d="M30.0362 90.9757L30.6667 92.5872L171.891 102.426L240.149 -18.4506L97.4237 -28.3942L30.0362 90.9757Z" fill="#AFD9FF"/>
<path d="M58.1714 90.2195L58.7052 91.5845L178.282 99.9153L236.08 -2.47581L115.232 -10.8952L58.1714 90.2195Z" fill="#A0D1FF"/>
<path d="M80.2231 91.9218L80.6875 93.116L184.802 100.37L235.158 10.7621L129.937 3.43149L80.2231 91.9218Z" fill="#7FC1FF"/>
<path d="M104.757 79.2196L105.074 80.0347L176.201 84.9901L210.599 23.8314L138.715 18.8233L104.757 79.2196Z" fill="#3DA2FF"/>
<path d="M127.72 67.8492L127.903 68.323L169.137 71.1957L189.085 35.6348L147.413 32.7316L127.72 67.8492Z" fill="#1987ED"/>
</svg>
