<svg width="132" height="176" viewBox="0 0 132 176" fill="none" xmlns="http://www.w3.org/2000/svg">
<path d="M65.9194 218.196L67.3794 219.125L187.195 143.724L170.964 5.85822L49.8742 82.0609L65.9194 218.196Z" fill="#DCEEFF" fill-opacity="0.8"/>
<path d="M80.5562 220.802L82.0162 221.73L201.832 146.329L185.6 8.46369L64.511 84.6664L80.5562 220.802Z" fill="#AFD9FF" fill-opacity="0.8"/>
<path d="M102.822 203.588L104.059 204.375L205.508 140.531L191.742 23.7621L89.2137 88.2841L102.822 203.588Z" fill="#A0D1FF" fill-opacity="0.8"/>
<path d="M121.629 191.948L122.709 192.638L211.04 137.05L198.81 34.9931L109.54 91.1717L121.629 191.948Z" fill="#7FC1FF" fill-opacity="0.8"/>
<path d="M133.939 167.213L134.676 167.684L195.022 129.708L186.698 60.0355L125.711 98.4149L133.939 167.213Z" fill="#3DA2FF" fill-opacity="0.91"/>
<path d="M145.765 144.482L146.193 144.756L181.176 122.741L176.293 82.261L140.939 104.51L145.765 144.482Z" fill="#1987ED" fill-opacity="0.84"/>
</svg>
